<svg width="24" height="25" viewBox="0 0 24 25" fill="none" xmlns="http://www.w3.org/2000/svg"><rect x="1" y="1.62" width="22" height="22" rx="6.2" stroke="#E4002B" stroke-width="2"/><path fill-rule="evenodd" clip-rule="evenodd" d="M3.523 6.241C3 7.268 3 8.611 3 11.301v2.64c0 2.687 0 4.031.523 5.058a4.8 4.8 0 002.098 2.098c1.027.523 2.37.523 5.059.523h2.64c2.688 0 4.032 0 5.06-.523a4.8 4.8 0 002.097-2.098C21 17.973 21 16.63 21 13.94V11.3c0-2.688 0-4.032-.523-5.059a4.8 4.8 0 00-2.098-2.098c-1.027-.523-2.37-.523-5.059-.523h-2.64c-2.688 0-4.032 0-5.06.523a4.8 4.8 0 00-2.097 2.098zm9.803 4.532l2.086-3.943.002-.005a1.591 1.591 0 011.198-.81c.414-.022.657.3.455.683l-.769 1.455-3.326 6.294-2.086 3.944c-.213.374-.564.65-.977.768-.278.084-.678.064-.753-.277l-.228-.983-1.537-6.897c-.163-.732 1.62-1.7 1.808-.848l.227.98 1.1 4.935 2.8-5.296z" fill="#E4002B"/></svg>