<svg width="24" height="24" viewBox="0 0 24 24" fill="none" xmlns="http://www.w3.org/2000/svg"><path d="M4.361 19.548c.163.163.352.27.567.322.221.052.44.052.654 0 .215-.052.4-.156.557-.312l5.82-5.82 5.82 5.82c.157.156.342.26.557.312.215.052.43.052.645 0 .214-.052.403-.16.566-.322.163-.163.27-.352.322-.567.052-.214.052-.43 0-.644a1.158 1.158 0 00-.312-.557l-5.81-5.83 5.81-5.82c.156-.156.26-.342.312-.557.059-.215.059-.43 0-.644-.052-.215-.16-.4-.322-.557a1.151 1.151 0 00-.567-.332 1.35 1.35 0 00-.644 0c-.215.052-.4.156-.557.313l-5.82 5.82-5.82-5.82a1.16 1.16 0 00-.567-.313 1.39 1.39 0 00-.654 0c-.215.052-.4.16-.557.322a1.19 1.19 0 00-.322.567 1.583 1.583 0 000 .654 1.1 1.1 0 00.313.547l5.82 5.82-5.82 5.83a1.16 1.16 0 00-.313.557c-.052.215-.052.43 0 .644.052.215.16.404.322.567z" fill="#1D1D1B"/></svg>