<svg version="1.2" xmlns="http://www.w3.org/2000/svg" viewBox="0 0 35 40" width="35" height="40"><path d="M27.9 26.7C21.7 35 12.1 38.2 6.5 33.9c-5.7-4.2-5.2-14.4 1-22.6C13.7 3.1 23.3-.2 29 4.1c5.6 4.2 5.2 14.4-1.1 22.6z" fill="#e4002b"/><path d="M12.8 23.7v-.4l.2-.4 3.9-3.9-3.9-3.9q-.1-.1-.2-.3v-.5q.1-.2.3-.3.1-.2.3-.3h.5q.2.1.3.2l3.9 3.9 3.9-3.9.4-.2h.4q.2.1.4.3.1.1.2.3.1.2 0 .5-.1.2-.2.3L19.3 19l3.9 3.9.2.4v.4l-.2.4-.4.2h-.4l-.4-.2-3.9-3.9-3.9 3.9q-.1.1-.3.2h-.5q-.2-.1-.3-.2-.2-.2-.3-.4z" fill="#fff"/></svg>