<svg width="119" height="119" viewBox="0 0 119 119" fill="none" xmlns="http://www.w3.org/2000/svg"><rect width="119" height="119" rx="16" fill="#F7F7F9"/><path d="M60.985 45.857l-6.89 22.85-.973 3.234c-.424 1.412.275 2.676 1.836 2.723a4.246 4.246 0 003.86-2.605l6.89-22.851.974-3.233c.431-1.413-.275-2.676-1.837-2.723a4.238 4.238 0 00-3.86 2.605z" fill="#E4002B"/><path d="M44.205 61.551h29.034a4.92 4.92 0 003.861-2.613c.644-1.326-.102-2.181-1.467-2.181H46.598a4.927 4.927 0 00-3.868 2.613c-.636 1.326.11 2.181 1.475 2.181z" fill="#E4002B"/></svg>