<svg width="24" height="24" viewBox="0 0 24 24" fill="none" xmlns="http://www.w3.org/2000/svg"><g clip-path="url(#clip0_0_3174)"><path fill-rule="evenodd" clip-rule="evenodd" d="M8.83 5.042c-1.896.064-3.34 1.467-4 3.167H2.115A2.69 2.69 0 00.136 9.54c-.109.247-.225.596-.034.837a.904.904 0 00.788.281h3.606c.155 1.307.89 2.45 2.466 2.401 1.305-.04 2.539-1.08 3.337-2.401h11.005a2.52 2.52 0 001.98-1.336c.331-.68-.052-1.126-.75-1.126H11.472c-.1.01-.2.026-.298.048.177-1.398-.284-2.667-1.74-3.103-.147-.07-.345-.109-.604-.1zM7.063 9.038c.087-.49.453-1.723 1.05-1.924 1.01.492.301 3.378-.472 3.733-.75.349-.653-1.408-.578-1.81zm5.425 8.465H1.274c-.695 0-1.077-.447-.75-1.126a2.532 2.532 0 011.98-1.336h10.383c.681-1.641 2.1-2.976 3.948-3.039.268-.009.472.032.62.107 1.386.43 1.862 1.614 1.741 2.94h3.189a.906.906 0 01.784.285c.191.24.075.59-.034.833a2.4 2.4 0 01-.833.9 2.337 2.337 0 01-1.144.436h-2.782c-.795 1.376-2.065 2.475-3.41 2.518-1.623.05-2.353-1.163-2.478-2.518zm3.63-3.428c-.597.2-.963 1.434-1.05 1.923-.075.402-.173 2.158.578 1.809.773-.354 1.482-3.24.472-3.732z" fill="#000"/></g><defs><clipPath id="clip0_0_3174"><path fill="#fff" d="M0 0h24v24H0z"/></clipPath></defs></svg>