<svg width="48" height="48" viewBox="0 0 48 48" fill="none" xmlns="http://www.w3.org/2000/svg"><path d="M46.343 14.387c-.106-2.42-.497-4.082-1.056-5.524a11.113 11.113 0 00-2.63-4.038 11.188 11.188 0 00-4.023-2.624c-1.448-.56-3.1-.952-5.516-1.059C30.684 1.027 29.911 1 23.738 1c-6.173 0-6.945.027-9.37.133-2.416.107-4.077.499-5.516 1.059A11.092 11.092 0 004.82 4.825a11.213 11.213 0 00-2.62 4.03c-.56 1.45-.95 3.104-1.057 5.523C1.027 16.816 1 17.59 1 23.772s.027 6.956.133 9.384c.107 2.42.498 4.083 1.057 5.525a11.23 11.23 0 002.63 4.038 11.189 11.189 0 004.023 2.624c1.448.56 3.1.952 5.516 1.058 2.425.107 3.198.134 9.37.134 6.174 0 6.947-.027 9.371-.134 2.416-.106 4.077-.498 5.516-1.058a11.639 11.639 0 006.653-6.663c.56-1.45.95-3.104 1.057-5.524.106-2.428.133-3.202.133-9.384s-.009-6.956-.116-9.385zM42.25 32.978c-.098 2.224-.47 3.425-.782 4.226a7.548 7.548 0 01-4.316 4.323c-.8.311-2.008.685-4.22.782-2.398.108-3.117.134-9.184.134-6.066 0-6.794-.026-9.184-.134-2.22-.097-3.42-.47-4.219-.782a6.995 6.995 0 01-2.611-1.7 7.08 7.08 0 01-1.697-2.614c-.31-.8-.684-2.01-.781-4.226-.107-2.401-.133-3.122-.133-9.197 0-6.076.026-6.805.133-9.198.097-2.224.47-3.425.781-4.225A6.922 6.922 0 017.742 7.75a7.057 7.057 0 012.611-1.698c.8-.312 2.008-.685 4.219-.783 2.398-.107 3.118-.134 9.184-.134 6.076 0 6.795.027 9.184.134 2.221.098 3.42.471 4.22.783a6.99 6.99 0 012.61 1.698 7.079 7.079 0 011.697 2.616c.311.8.684 2.01.782 4.225.107 2.402.133 3.122.133 9.198 0 6.075-.026 6.787-.133 9.188z" fill="#E4002B"/><path d="M23.743 12.074c-6.449 0-11.68 5.24-11.68 11.697 0 6.459 5.231 11.698 11.68 11.698 6.448 0 11.68-5.24 11.68-11.698s-5.232-11.697-11.68-11.697zm0 19.285c-4.184 0-7.577-3.398-7.577-7.588 0-4.19 3.393-7.587 7.577-7.587 4.183 0 7.576 3.398 7.576 7.587 0 4.19-3.393 7.588-7.576 7.588zM38.606 11.61c0 1.508-1.22 2.73-2.727 2.73a2.729 2.729 0 01-2.727-2.73 2.729 2.729 0 012.727-2.731 2.729 2.729 0 012.727 2.73z" fill="#E4002B"/></svg>