<svg width="420" height="65" viewBox="0 0 420 65" fill="none" xmlns="http://www.w3.org/2000/svg"><path d="M386.751 48.532c0-3.242 3.279-3.963 6.833-4.953 2.185-.54 4.463-1.168 6.377-2.52v5.852c-1.822 2.973-4.921 4.684-9.018 4.684-2.461 0-4.192-1.25-4.192-3.063zm-14.116-14.954c4.188-2.882 12.114-5.043 20.127-5.043 4.647 0 7.199.718 7.199 2.52 0 2.61-3.737 3.15-10.108 4.23-9.656 1.712-22.591 4.06-22.591 15.85 0 8.912 5.556 13.865 15.576 13.865 7.015 0 12.388-2.701 17.126-7.832v6.76H420v-29.89c0-12.065-9.836-19.719-25.32-19.719-8.744 0-16.214 1.168-22.042 3.242l-.003 16.018z" fill="#E4002B"/><path d="M310.145 63.927h20.677V42.769l12.297 21.158h24.502l-18.22-28.003 18.308-20.617h-22.13l-14.757 20.617V0h-20.677v63.927zm-64.395 0h20.768V35.294c1.64-3.96 4.372-5.67 8.289-5.67 4.463 0 7.196 3.331 7.196 8.823v25.48h20.847V35.116c0-12.428-7.925-20.712-19.856-20.712-7.104 0-13.026 2.704-17.215 7.566v-6.663H245.74l.01 48.62zM237.551 0h-20.766v9.005h20.766V0zm0 15.302h-20.766v48.62h20.766v-48.62zm-74.957 48.62h47.82V49.518h-23.138l22.408-20.171V15.392l-45.271-.09v14.407h20.406l-22.225 19.987v14.226zm-42.906.007h20.778v-27.73c1.642-4.144 4.829-5.765 9.931-5.765 3.37 0 6.649.624 8.844 1.53V14.768a12.285 12.285 0 00-3.187-.362c-6.924 0-12.48 3.245-16.305 8.824v-7.92h-20.061v48.62zm-44.63-24.311c0-6.935 3.099-10.807 8.655-10.807 5.556 0 8.652 3.872 8.652 10.807 0 6.935-3.096 10.804-8.652 10.804-5.556 0-8.655-3.872-8.655-10.803zm8.655 25.211c18.033 0 29.601-9.813 29.601-25.21 0-15.925-11.021-25.215-29.6-25.215-18.037 0-29.605 9.817-29.605 25.214 0 15.925 11.021 25.211 29.604 25.211z" fill="#E4002B"/><path d="M0 63.927h20.677V42.769l12.297 21.158h24.502L39.26 35.924l18.308-20.617H35.435L20.677 35.924V0H0v63.927z" fill="#E4002B"/></svg>