<svg width="40" height="32" viewBox="0 0 40 32" fill="none" xmlns="http://www.w3.org/2000/svg"><path d="M25.72 28.686C25.017 30.516 22.985 32 21.18 32c-1.806 0-2.699-1.482-1.996-3.314.702-1.832 2.736-3.313 4.541-3.313 1.806 0 2.699 1.482 1.995 3.313zm5.152-9.435H10.648c-1.276 0-2.713 1.048-3.21 2.346-.497 1.298.134 2.346 1.41 2.346h20.223c1.276 0 2.713-1.05 3.21-2.346.496-1.296-.134-2.346-1.41-2.346zm4.169-6.42h-24.81c-1.276 0-2.714 1.049-3.21 2.346-.497 1.298.135 2.346 1.41 2.346h24.81c1.275 0 2.712-1.05 3.209-2.346.497-1.296-.134-2.337-1.41-2.337l.001-.009zm2.908-6.42H8.117c-1.277 0-2.713 1.049-3.21 2.346-.497 1.298.134 2.346 1.41 2.346h29.832c1.276 0 2.714-1.05 3.211-2.346.497-1.296-.136-2.337-1.412-2.337v-.009zM10.838 25.508c-1.768 0-3.76 1.454-4.448 3.246C5.702 30.547 6.576 32 8.338 32s3.76-1.453 4.448-3.246c.688-1.793-.179-3.246-1.948-3.246zm2.913-23.162C14.247 1.053 13.617 0 12.34 0H3.379C2.103 0 .666 1.05.169 2.346c-.497 1.296.14 2.346 1.41 2.346h8.958c1.28 0 2.717-1.056 3.214-2.346z" fill="#E4002B"/></svg>