<svg width="300" height="44" viewBox="0 0 300 44" fill="none" xmlns="http://www.w3.org/2000/svg"><path d="M33.554 39.167c-.916 2.459-3.568 4.453-5.924 4.453-2.355 0-3.52-1.99-2.603-4.453.916-2.462 3.57-4.453 5.925-4.453 2.356 0 3.52 1.993 2.602 4.453zm6.721-12.678H13.891c-1.665 0-3.539 1.409-4.187 3.152-.648 1.744.175 3.152 1.84 3.152h26.382c1.664 0 3.539-1.41 4.187-3.152.648-1.742-.175-3.152-1.838-3.152zm5.44-8.627H13.347c-1.665 0-3.54 1.409-4.189 3.152-.648 1.744.176 3.152 1.841 3.152h32.365c1.665 0 3.539-1.41 4.187-3.152.648-1.742-.175-3.14-1.84-3.14l.002-.012zm3.793-8.627h-38.92c-1.664 0-3.538 1.409-4.187 3.152-.648 1.744.175 3.153 1.84 3.153H47.16c1.665 0 3.54-1.41 4.189-3.152.648-1.742-.178-3.141-1.843-3.141l.002-.012zM14.139 34.897c-2.306 0-4.905 1.953-5.803 4.362-.897 2.408.243 4.361 2.542 4.361s4.905-1.953 5.803-4.361c.897-2.41-.234-4.362-2.542-4.362zm3.8-31.125c.648-1.737-.175-3.152-1.84-3.152H4.408C2.743.62.868 2.03.22 3.772c-.648 1.742.183 3.152 1.84 3.152h11.687c1.67 0 3.544-1.418 4.192-3.152zm263.428 27.02c0-1.768 1.762-2.161 3.672-2.7 1.175-.295 2.399-.638 3.428-1.375v3.191c-.98 1.621-2.645 2.555-4.847 2.555-1.323 0-2.253-.681-2.253-1.67zm-7.588-8.155c2.252-1.572 6.511-2.75 10.819-2.75 2.497 0 3.869.391 3.869 1.374 0 1.423-2.009 1.718-5.433 2.307-5.19.933-12.142 2.214-12.142 8.644 0 4.86 2.986 7.561 8.371 7.561 3.771 0 6.659-1.473 9.206-4.27v3.686h10.768V22.887c0-6.58-5.286-10.754-13.609-10.754-4.699 0-8.714.637-11.847 1.768l-.002 8.736z" fill="#fff"/><path d="M240.196 39.189h11.114v-11.54l6.609 11.54h13.17l-9.793-15.272 9.84-11.245h-11.894l-7.932 11.245V4.324h-11.114V39.19zm-34.611.003h11.163V23.576c.881-2.16 2.35-3.093 4.455-3.093 2.399 0 3.867 1.818 3.867 4.813v13.896h11.206V23.48c0-6.778-4.26-11.296-10.673-11.296-3.818 0-7.001 1.475-9.252 4.127v-3.634H205.58l.005 26.516zm-4.407-34.868h-11.161v4.912h11.161V4.324zm0 8.344h-11.161v26.516h11.161V12.668zM160.89 39.184h25.702V31.33h-12.436L186.2 20.328v-7.61l-24.332-.05v7.857h10.967l-11.945 10.9v7.76zm-23.061.009h11.168V24.07c.883-2.26 2.596-3.143 5.338-3.143 1.811 0 3.573.34 4.753.834v-9.378a6.508 6.508 0 00-1.713-.198c-3.721 0-6.707 1.77-8.763 4.813v-4.32h-10.783v26.516zM113.84 25.935c0-3.783 1.665-5.894 4.651-5.894 2.987 0 4.651 2.111 4.651 5.894 0 3.782-1.664 5.892-4.651 5.892-2.986 0-4.651-2.112-4.651-5.892zm4.651 13.75c9.693 0 15.91-5.353 15.91-13.75 0-8.685-5.923-13.752-15.91-13.752-9.694 0-15.911 5.354-15.911 13.752 0 8.685 5.924 13.75 15.911 13.75z" fill="#fff"/><path d="M73.5 39.189h11.114v-11.54l6.609 11.54h13.169l-9.79-15.272 9.84-11.245H92.545l-7.931 11.245V4.324H73.5V39.19z" fill="#fff"/></svg>