<svg version="1.2" xmlns="http://www.w3.org/2000/svg" viewBox="0 0 52 52" width="52" height="52"><style>.s0{fill:#fff}</style><path id="Layer" class="s0" d="M13.4 6.2c1.7-1.4 5.5-.3 3.3 1.7-6.9 5.9-11.1 15.6-9.2 24.7 2.3 10.9 13.9 16.2 23.9 11.5 8.9-4.1 14.6-14.2 13.3-24C43.2 9.3 32.3 1.9 21.8 6.4c-2.6 1.2-3.9-1.8-1.3-3 10-4.3 22.2-.7 26.9 9.5 8.1 17.8-10 39.5-28.8 36.2-9.2-1.6-15.5-9.6-15.9-18.8-.4-9 3.9-18.2 10.7-24z"/><path id="Layer" class="s0" d="M12.6 29.4c-.2-1.6 3.3-2.7 3.6-.8.5 4.8 3.8 8.6 8.9 8.4 4.6-.2 8.3-3.8 9.8-7.9.6-1.5 4.2-2 3.5-.1-2.2 5.6-7 10.1-13.2 10.8-6.7.7-11.8-3.8-12.6-10.4zm2.4-7.3c-.7.6-2.2 1-3 .1-.8-.8-.1-1.9.6-2.5l3.8-3c.7-.5 2.4-.9 3.1-.1l2.2 3c1.5 2-2.4 4.3-3.7 2.6l-2.2-3 3-.1-3.8 3zm19 0c-.8.6-2.3 1-3.1.1-.8-.8-.1-1.9.7-2.5l3.8-3c.6-.5 2.4-.9 3-.1l2.3 3c1.4 2-2.5 4.3-3.8 2.6l-2.2-3 3-.1-3.7 3z"/></svg>